solid OpenSCAD_Model
  facet normal 0 0 -1
    outer loop
      vertex 62.6826 -43.825 -1.6
      vertex 64.125 -8.4 -1.6
      vertex 64.125 -42.3826 -1.6
    endloop
  endfacet
  facet normal 0 0 -1
    outer loop
      vertex -62.6826 -43.825 -1.6
      vertex 64.125 -8.4 -1.6
      vertex 62.6826 -43.825 -1.6
    endloop
  endfacet
  facet normal 0 0 -1
    outer loop
      vertex 62.6826 -43.825 -1.6
      vertex 64.125 -42.3826 -1.6
      vertex 64.0635 -42.6917 -1.6
    endloop
  endfacet
  facet normal -0 0 -1
    outer loop
      vertex 64.125 -8.4 -1.6
      vertex -62.6826 -43.825 -1.6
      vertex 64.125 8.4 -1.6
    endloop
  endfacet
  facet normal 0 0 -1
    outer loop
      vertex 62.6826 -43.825 -1.6
      vertex 64.0635 -42.6917 -1.6
      vertex 63.9429 -42.9829 -1.6
    endloop
  endfacet
  facet normal 0 0 -1
    outer loop
      vertex 64.125 8.4 -1.6
      vertex 62.6826 43.825 -1.6
      vertex 64.125 42.3826 -1.6
    endloop
  endfacet
  facet normal 0 0 -1
    outer loop
      vertex 62.6826 -43.825 -1.6
      vertex 63.9429 -42.9829 -1.6
      vertex 63.7678 -43.2449 -1.6
    endloop
  endfacet
  facet normal 0 0 -1
    outer loop
      vertex 64.125 42.3826 -1.6
      vertex 62.6826 43.825 -1.6
      vertex 64.0635 42.6917 -1.6
    endloop
  endfacet
  facet normal 0 0 -1
    outer loop
      vertex 62.6826 -43.825 -1.6
      vertex 63.7678 -43.2449 -1.6
      vertex 63.5449 -43.4678 -1.6
    endloop
  endfacet
  facet normal 0 0 -1
    outer loop
      vertex 64.0635 42.6917 -1.6
      vertex 62.6826 43.825 -1.6
      vertex 63.9429 42.9829 -1.6
    endloop
  endfacet
  facet normal 0 0 -1
    outer loop
      vertex 62.6826 -43.825 -1.6
      vertex 63.5449 -43.4678 -1.6
      vertex 63.2829 -43.6429 -1.6
    endloop
  endfacet
  facet normal 0 0 -1
    outer loop
      vertex 63.9429 42.9829 -1.6
      vertex 62.6826 43.825 -1.6
      vertex 63.7678 43.2449 -1.6
    endloop
  endfacet
  facet normal 0 0 -1
    outer loop
      vertex 62.6826 -43.825 -1.6
      vertex 63.2829 -43.6429 -1.6
      vertex 62.9917 -43.7635 -1.6
    endloop
  endfacet
  facet normal 0 0 -1
    outer loop
      vertex 63.7678 43.2449 -1.6
      vertex 62.6826 43.825 -1.6
      vertex 63.5449 43.4678 -1.6
    endloop
  endfacet
  facet normal 0 0 -1
    outer loop
      vertex 63.5449 43.4678 -1.6
      vertex 62.6826 43.825 -1.6
      vertex 63.2829 43.6429 -1.6
    endloop
  endfacet
  facet normal 0 0 -1
    outer loop
      vertex 63.2829 43.6429 -1.6
      vertex 62.6826 43.825 -1.6
      vertex 62.9917 43.7635 -1.6
    endloop
  endfacet
  facet normal 0 0 -1
    outer loop
      vertex -62.6826 43.825 -1.6
      vertex 64.125 8.4 -1.6
      vertex -62.6826 -43.825 -1.6
    endloop
  endfacet
  facet normal 0 0 -1
    outer loop
      vertex 64.125 8.4 -1.6
      vertex -62.6826 43.825 -1.6
      vertex 62.6826 43.825 -1.6
    endloop
  endfacet
  facet normal 0 0 -1
    outer loop
      vertex -64.125 -42.3826 -1.6
      vertex -62.6826 -43.825 -1.6
      vertex -62.9917 -43.7635 -1.6
    endloop
  endfacet
  facet normal 0 0 -1
    outer loop
      vertex -62.6826 -43.825 -1.6
      vertex -64.125 -42.3826 -1.6
      vertex -62.6826 43.825 -1.6
    endloop
  endfacet
  facet normal 0 0 -1
    outer loop
      vertex -64.125 -42.3826 -1.6
      vertex -62.9917 -43.7635 -1.6
      vertex -63.2829 -43.6429 -1.6
    endloop
  endfacet
  facet normal 0 0 -1
    outer loop
      vertex -64.125 42.3826 -1.6
      vertex -62.6826 43.825 -1.6
      vertex -64.125 -42.3826 -1.6
    endloop
  endfacet
  facet normal 0 0 -1
    outer loop
      vertex -64.125 -42.3826 -1.6
      vertex -63.2829 -43.6429 -1.6
      vertex -63.5449 -43.4678 -1.6
    endloop
  endfacet
  facet normal 0 0 -1
    outer loop
      vertex -62.6826 43.825 -1.6
      vertex -64.125 42.3826 -1.6
      vertex -62.9917 43.7635 -1.6
    endloop
  endfacet
  facet normal 0 0 -1
    outer loop
      vertex -64.125 -42.3826 -1.6
      vertex -63.5449 -43.4678 -1.6
      vertex -63.7678 -43.2449 -1.6
    endloop
  endfacet
  facet normal 0 0 -1
    outer loop
      vertex -62.9917 43.7635 -1.6
      vertex -64.125 42.3826 -1.6
      vertex -63.2829 43.6429 -1.6
    endloop
  endfacet
  facet normal 0 0 -1
    outer loop
      vertex -64.125 -42.3826 -1.6
      vertex -63.7678 -43.2449 -1.6
      vertex -63.9429 -42.9829 -1.6
    endloop
  endfacet
  facet normal 0 0 -1
    outer loop
      vertex -63.2829 43.6429 -1.6
      vertex -64.125 42.3826 -1.6
      vertex -63.5449 43.4678 -1.6
    endloop
  endfacet
  facet normal 0 0 -1
    outer loop
      vertex -64.125 -42.3826 -1.6
      vertex -63.9429 -42.9829 -1.6
      vertex -64.0635 -42.6917 -1.6
    endloop
  endfacet
  facet normal 0 0 -1
    outer loop
      vertex -63.5449 43.4678 -1.6
      vertex -64.125 42.3826 -1.6
      vertex -63.7678 43.2449 -1.6
    endloop
  endfacet
  facet normal 0 0 -1
    outer loop
      vertex -63.7678 43.2449 -1.6
      vertex -64.125 42.3826 -1.6
      vertex -63.9429 42.9829 -1.6
    endloop
  endfacet
  facet normal 0 0 -1
    outer loop
      vertex -63.9429 42.9829 -1.6
      vertex -64.125 42.3826 -1.6
      vertex -64.0635 42.6917 -1.6
    endloop
  endfacet
  facet normal 0 0 -1
    outer loop
      vertex 71.025 -0.177284 -1.6
      vertex 73.425 -0.413664 -1.6
      vertex 73.2636 -1.22509 -1.6
    endloop
  endfacet
  facet normal 0 0 -1
    outer loop
      vertex 73.425 -0.413664 -1.6
      vertex 71.025 -0.177284 -1.6
      vertex 73.425 0.413664 -1.6
    endloop
  endfacet
  facet normal 0 0 -1
    outer loop
      vertex 70.9558 -0.525041 -1.6
      vertex 73.2636 -1.22509 -1.6
      vertex 72.947 -1.98945 -1.6
    endloop
  endfacet
  facet normal 0 0 -1
    outer loop
      vertex 71.025 0.177284 -1.6
      vertex 73.425 0.413664 -1.6
      vertex 71.025 -0.177284 -1.6
    endloop
  endfacet
  facet normal 0 0 -1
    outer loop
      vertex 70.8201 -0.852619 -1.6
      vertex 72.947 -1.98945 -1.6
      vertex 72.4874 -2.67734 -1.6
    endloop
  endfacet
  facet normal -0 0 -1
    outer loop
      vertex 73.425 0.413664 -1.6
      vertex 71.025 0.177284 -1.6
      vertex 73.2636 1.22509 -1.6
    endloop
  endfacet
  facet normal 0 0 -1
    outer loop
      vertex 70.6232 -1.14743 -1.6
      vertex 72.4874 -2.67734 -1.6
      vertex 71.9023 -3.26235 -1.6
    endloop
  endfacet
  facet normal 0 0 -1
    outer loop
      vertex 70.9558 0.525041 -1.6
      vertex 73.2636 1.22509 -1.6
      vertex 71.025 0.177284 -1.6
    endloop
  endfacet
  facet normal 0 0 -1
    outer loop
      vertex 70.3724 -1.39815 -1.6
      vertex 71.9023 -3.26235 -1.6
      vertex 71.2144 -3.72199 -1.6
    endloop
  endfacet
  facet normal -0 0 -1
    outer loop
      vertex 73.2636 1.22509 -1.6
      vertex 70.9558 0.525041 -1.6
      vertex 72.947 1.98945 -1.6
    endloop
  endfacet
  facet normal 0 0 -1
    outer loop
      vertex 70.8201 0.852619 -1.6
      vertex 72.947 1.98945 -1.6
      vertex 70.9558 0.525041 -1.6
    endloop
  endfacet
  facet normal 0 0 -1
    outer loop
      vertex 73.2636 -1.22509 -1.6
      vertex 70.9558 -0.525041 -1.6
      vertex 71.025 -0.177284 -1.6
    endloop
  endfacet
  facet normal 0 0 -1
    outer loop
      vertex 72.947 -1.98945 -1.6
      vertex 70.8201 -0.852619 -1.6
      vertex 70.9558 -0.525041 -1.6
    endloop
  endfacet
  facet normal 0 0 -1
    outer loop
      vertex 72.4874 -2.67734 -1.6
      vertex 70.6232 -1.14743 -1.6
      vertex 70.8201 -0.852619 -1.6
    endloop
  endfacet
  facet normal 0 0 -1
    outer loop
      vertex 71.9023 -3.26235 -1.6
      vertex 70.3724 -1.39815 -1.6
      vertex 70.6232 -1.14743 -1.6
    endloop
  endfacet
  facet normal 0 0 -1
    outer loop
      vertex 71.2144 -3.72199 -1.6
      vertex 70.0776 -1.59514 -1.6
      vertex 70.3724 -1.39815 -1.6
    endloop
  endfacet
  facet normal 0 0 -1
    outer loop
      vertex 71.2144 -3.72199 -1.6
      vertex 69.75 -1.73083 -1.6
      vertex 70.0776 -1.59514 -1.6
    endloop
  endfacet
  facet normal 0 0 -1
    outer loop
      vertex 71.2144 -3.72199 -1.6
      vertex 69.4023 -1.8 -1.6
      vertex 69.75 -1.73083 -1.6
    endloop
  endfacet
  facet normal 0 0 -1
    outer loop
      vertex 71.2144 -3.72199 -1.6
      vertex 69.0477 -1.8 -1.6
      vertex 69.4023 -1.8 -1.6
    endloop
  endfacet
  facet normal 0 0 -1
    outer loop
      vertex 71.2144 -3.72199 -1.6
      vertex 68.7 -1.73083 -1.6
      vertex 69.0477 -1.8 -1.6
    endloop
  endfacet
  facet normal 0 0 -1
    outer loop
      vertex 64.125 -8.4 -1.6
      vertex 68.7 -1.73083 -1.6
      vertex 71.2144 -3.72199 -1.6
    endloop
  endfacet
  facet normal -0 0 -1
    outer loop
      vertex 68.7 -1.73083 -1.6
      vertex 64.125 -8.4 -1.6
      vertex 68.3724 -1.59514 -1.6
    endloop
  endfacet
  facet normal -0 0 -1
    outer loop
      vertex 67.425 -0.177284 -1.6
      vertex 64.125 -8.4 -1.6
      vertex 67.425 0.177284 -1.6
    endloop
  endfacet
  facet normal -0 0 -1
    outer loop
      vertex 67.4942 -0.525041 -1.6
      vertex 64.125 -8.4 -1.6
      vertex 67.425 -0.177284 -1.6
    endloop
  endfacet
  facet normal -0 0 -1
    outer loop
      vertex 67.6299 -0.852619 -1.6
      vertex 64.125 -8.4 -1.6
      vertex 67.4942 -0.525041 -1.6
    endloop
  endfacet
  facet normal -0 0 -1
    outer loop
      vertex 67.8269 -1.14743 -1.6
      vertex 64.125 -8.4 -1.6
      vertex 67.6299 -0.852619 -1.6
    endloop
  endfacet
  facet normal -0 0 -1
    outer loop
      vertex 68.0776 -1.39815 -1.6
      vertex 64.125 -8.4 -1.6
      vertex 67.8269 -1.14743 -1.6
    endloop
  endfacet
  facet normal -0 0 -1
    outer loop
      vertex 68.3724 -1.59514 -1.6
      vertex 64.125 -8.4 -1.6
      vertex 68.0776 -1.39815 -1.6
    endloop
  endfacet
  facet normal -0 0 -1
    outer loop
      vertex 72.947 1.98945 -1.6
      vertex 70.8201 0.852619 -1.6
      vertex 72.4874 2.67734 -1.6
    endloop
  endfacet
  facet normal 0 0 -1
    outer loop
      vertex 70.6232 1.14743 -1.6
      vertex 72.4874 2.67734 -1.6
      vertex 70.8201 0.852619 -1.6
    endloop
  endfacet
  facet normal -0 0 -1
    outer loop
      vertex 72.4874 2.67734 -1.6
      vertex 70.6232 1.14743 -1.6
      vertex 71.9023 3.26235 -1.6
    endloop
  endfacet
  facet normal 0 0 -1
    outer loop
      vertex 70.3724 1.39815 -1.6
      vertex 71.9023 3.26235 -1.6
      vertex 70.6232 1.14743 -1.6
    endloop
  endfacet
  facet normal -0 0 -1
    outer loop
      vertex 71.9023 3.26235 -1.6
      vertex 70.3724 1.39815 -1.6
      vertex 71.2144 3.72199 -1.6
    endloop
  endfacet
  facet normal 0 0 -1
    outer loop
      vertex 70.0776 1.59514 -1.6
      vertex 71.2144 3.72199 -1.6
      vertex 70.3724 1.39815 -1.6
    endloop
  endfacet
  facet normal 0 0 -1
    outer loop
      vertex 69.75 1.73083 -1.6
      vertex 71.2144 3.72199 -1.6
      vertex 70.0776 1.59514 -1.6
    endloop
  endfacet
  facet normal 0 0 -1
    outer loop
      vertex 69.4023 1.8 -1.6
      vertex 71.2144 3.72199 -1.6
      vertex 69.75 1.73083 -1.6
    endloop
  endfacet
  facet normal 0 0 -1
    outer loop
      vertex 69.0477 1.8 -1.6
      vertex 71.2144 3.72199 -1.6
      vertex 69.4023 1.8 -1.6
    endloop
  endfacet
  facet normal 0 0 -1
    outer loop
      vertex 68.7 1.73083 -1.6
      vertex 71.2144 3.72199 -1.6
      vertex 69.0477 1.8 -1.6
    endloop
  endfacet
  facet normal 0 0 -1
    outer loop
      vertex 64.125 8.4 -1.6
      vertex 68.7 1.73083 -1.6
      vertex 68.3724 1.59514 -1.6
    endloop
  endfacet
  facet normal 0 0 -1
    outer loop
      vertex 64.125 8.4 -1.6
      vertex 68.3724 1.59514 -1.6
      vertex 68.0776 1.39815 -1.6
    endloop
  endfacet
  facet normal 0 0 -1
    outer loop
      vertex 64.125 8.4 -1.6
      vertex 67.425 0.177284 -1.6
      vertex 64.125 -8.4 -1.6
    endloop
  endfacet
  facet normal 0 0 -1
    outer loop
      vertex 68.7 1.73083 -1.6
      vertex 64.125 8.4 -1.6
      vertex 71.2144 3.72199 -1.6
    endloop
  endfacet
  facet normal 0 0 -1
    outer loop
      vertex 67.8269 1.14743 -1.6
      vertex 64.125 8.4 -1.6
      vertex 68.0776 1.39815 -1.6
    endloop
  endfacet
  facet normal 0 0 -1
    outer loop
      vertex 67.6299 0.852619 -1.6
      vertex 64.125 8.4 -1.6
      vertex 67.8269 1.14743 -1.6
    endloop
  endfacet
  facet normal 0 0 -1
    outer loop
      vertex 67.4942 0.525041 -1.6
      vertex 64.125 8.4 -1.6
      vertex 67.6299 0.852619 -1.6
    endloop
  endfacet
  facet normal 0 0 -1
    outer loop
      vertex 67.425 0.177284 -1.6
      vertex 64.125 8.4 -1.6
      vertex 67.4942 0.525041 -1.6
    endloop
  endfacet
  facet normal 0.382632 -0.923901 0
    outer loop
      vertex 62.9917 -43.7635 -1.6
      vertex 63.2829 -43.6429 1.6
      vertex 62.9917 -43.7635 1.6
    endloop
  endfacet
  facet normal 0.382632 -0.923901 0
    outer loop
      vertex 63.2829 -43.6429 1.6
      vertex 62.9917 -43.7635 -1.6
      vertex 63.2829 -43.6429 -1.6
    endloop
  endfacet
  facet normal 0.555652 -0.831415 0
    outer loop
      vertex 63.2829 -43.6429 -1.6
      vertex 63.5449 -43.4678 1.6
      vertex 63.2829 -43.6429 1.6
    endloop
  endfacet
  facet normal 0.555652 -0.831415 0
    outer loop
      vertex 63.5449 -43.4678 1.6
      vertex 63.2829 -43.6429 -1.6
      vertex 63.5449 -43.4678 -1.6
    endloop
  endfacet
  facet normal 0.707107 -0.707107 0
    outer loop
      vertex 63.5449 -43.4678 1.6
      vertex 63.7678 -43.2449 -1.6
      vertex 63.7678 -43.2449 1.6
    endloop
  endfacet
  facet normal 0.707107 -0.707107 0
    outer loop
      vertex 63.7678 -43.2449 -1.6
      vertex 63.5449 -43.4678 1.6
      vertex 63.5449 -43.4678 -1.6
    endloop
  endfacet
  facet normal 0.831415 -0.555652 0
    outer loop
      vertex 63.7678 -43.2449 1.6
      vertex 63.9429 -42.9829 -1.6
      vertex 63.9429 -42.9829 1.6
    endloop
  endfacet
  facet normal 0.831415 -0.555652 0
    outer loop
      vertex 63.9429 -42.9829 -1.6
      vertex 63.7678 -43.2449 1.6
      vertex 63.7678 -43.2449 -1.6
    endloop
  endfacet
  facet normal 0.923901 -0.382632 0
    outer loop
      vertex 63.9429 -42.9829 1.6
      vertex 64.0635 -42.6917 -1.6
      vertex 64.0635 -42.6917 1.6
    endloop
  endfacet
  facet normal 0.923901 -0.382632 0
    outer loop
      vertex 64.0635 -42.6917 -1.6
      vertex 63.9429 -42.9829 1.6
      vertex 63.9429 -42.9829 -1.6
    endloop
  endfacet
  facet normal 0.980775 -0.19514 0
    outer loop
      vertex 64.0635 -42.6917 1.6
      vertex 64.125 -42.3826 -1.6
      vertex 64.125 -42.3826 1.6
    endloop
  endfacet
  facet normal 0.980775 -0.19514 0
    outer loop
      vertex 64.125 -42.3826 -1.6
      vertex 64.0635 -42.6917 1.6
      vertex 64.0635 -42.6917 -1.6
    endloop
  endfacet
  facet normal 1 -0 0
    outer loop
      vertex 64.125 -42.3826 1.6
      vertex 64.125 -8.4 -1.6
      vertex 64.125 -8.4 1.6
    endloop
  endfacet
  facet normal 1 0 0
    outer loop
      vertex 64.125 -8.4 -1.6
      vertex 64.125 -42.3826 1.6
      vertex 64.125 -42.3826 -1.6
    endloop
  endfacet
  facet normal 0.550761 -0.834663 0
    outer loop
      vertex 64.125 -8.4 -1.6
      vertex 71.2144 -3.72199 1.6
      vertex 64.125 -8.4 1.6
    endloop
  endfacet
  facet normal 0.550761 -0.834663 0
    outer loop
      vertex 71.2144 -3.72199 1.6
      vertex 64.125 -8.4 -1.6
      vertex 71.2144 -3.72199 -1.6
    endloop
  endfacet
  facet normal 0.55557 -0.83147 0
    outer loop
      vertex 71.2144 -3.72199 -1.6
      vertex 71.9023 -3.26235 1.6
      vertex 71.2144 -3.72199 1.6
    endloop
  endfacet
  facet normal 0.55557 -0.83147 0
    outer loop
      vertex 71.9023 -3.26235 1.6
      vertex 71.2144 -3.72199 -1.6
      vertex 71.9023 -3.26235 -1.6
    endloop
  endfacet
  facet normal 0.707052 -0.707161 0
    outer loop
      vertex 71.9023 -3.26235 1.6
      vertex 72.4874 -2.67734 -1.6
      vertex 72.4874 -2.67734 1.6
    endloop
  endfacet
  facet normal 0.707052 -0.707161 0
    outer loop
      vertex 72.4874 -2.67734 -1.6
      vertex 71.9023 -3.26235 1.6
      vertex 71.9023 -3.26235 -1.6
    endloop
  endfacet
  facet normal 0.831488 -0.555542 0
    outer loop
      vertex 72.4874 -2.67734 1.6
      vertex 72.947 -1.98945 -1.6
      vertex 72.947 -1.98945 1.6
    endloop
  endfacet
  facet normal 0.831488 -0.555542 0
    outer loop
      vertex 72.947 -1.98945 -1.6
      vertex 72.4874 -2.67734 1.6
      vertex 72.4874 -2.67734 -1.6
    endloop
  endfacet
  facet normal 0.923883 -0.382675 0
    outer loop
      vertex 72.947 -1.98945 1.6
      vertex 73.2636 -1.22509 -1.6
      vertex 73.2636 -1.22509 1.6
    endloop
  endfacet
  facet normal 0.923883 -0.382675 0
    outer loop
      vertex 73.2636 -1.22509 -1.6
      vertex 72.947 -1.98945 1.6
      vertex 72.947 -1.98945 -1.6
    endloop
  endfacet
  facet normal 0.980786 -0.195087 0
    outer loop
      vertex 73.2636 -1.22509 1.6
      vertex 73.425 -0.413664 -1.6
      vertex 73.425 -0.413664 1.6
    endloop
  endfacet
  facet normal 0.980786 -0.195087 0
    outer loop
      vertex 73.425 -0.413664 -1.6
      vertex 73.2636 -1.22509 1.6
      vertex 73.2636 -1.22509 -1.6
    endloop
  endfacet
  facet normal 1 -0 0
    outer loop
      vertex 73.425 -0.413664 1.6
      vertex 73.425 0.413664 -1.6
      vertex 73.425 0.413664 1.6
    endloop
  endfacet
  facet normal 1 0 0
    outer loop
      vertex 73.425 0.413664 -1.6
      vertex 73.425 -0.413664 1.6
      vertex 73.425 -0.413664 -1.6
    endloop
  endfacet
  facet normal 0.980786 0.195087 0
    outer loop
      vertex 73.425 0.413664 1.6
      vertex 73.2636 1.22509 -1.6
      vertex 73.2636 1.22509 1.6
    endloop
  endfacet
  facet normal 0.980786 0.195087 0
    outer loop
      vertex 73.2636 1.22509 -1.6
      vertex 73.425 0.413664 1.6
      vertex 73.425 0.413664 -1.6
    endloop
  endfacet
  facet normal 0.923883 0.382675 0
    outer loop
      vertex 73.2636 1.22509 1.6
      vertex 72.947 1.98945 -1.6
      vertex 72.947 1.98945 1.6
    endloop
  endfacet
  facet normal 0.923883 0.382675 0
    outer loop
      vertex 72.947 1.98945 -1.6
      vertex 73.2636 1.22509 1.6
      vertex 73.2636 1.22509 -1.6
    endloop
  endfacet
  facet normal 0.831488 0.555542 0
    outer loop
      vertex 72.947 1.98945 1.6
      vertex 72.4874 2.67734 -1.6
      vertex 72.4874 2.67734 1.6
    endloop
  endfacet
  facet normal 0.831488 0.555542 0
    outer loop
      vertex 72.4874 2.67734 -1.6
      vertex 72.947 1.98945 1.6
      vertex 72.947 1.98945 -1.6
    endloop
  endfacet
  facet normal 0.707052 0.707161 0
    outer loop
      vertex 72.4874 2.67734 1.6
      vertex 71.9023 3.26235 -1.6
      vertex 71.9023 3.26235 1.6
    endloop
  endfacet
  facet normal 0.707052 0.707161 0
    outer loop
      vertex 71.9023 3.26235 -1.6
      vertex 72.4874 2.67734 1.6
      vertex 72.4874 2.67734 -1.6
    endloop
  endfacet
  facet normal 0.55557 0.83147 -0
    outer loop
      vertex 71.9023 3.26235 -1.6
      vertex 71.2144 3.72199 1.6
      vertex 71.9023 3.26235 1.6
    endloop
  endfacet
  facet normal 0.55557 0.83147 0
    outer loop
      vertex 71.2144 3.72199 1.6
      vertex 71.9023 3.26235 -1.6
      vertex 71.2144 3.72199 -1.6
    endloop
  endfacet
  facet normal 0.550761 0.834663 -0
    outer loop
      vertex 71.2144 3.72199 -1.6
      vertex 64.125 8.4 1.6
      vertex 71.2144 3.72199 1.6
    endloop
  endfacet
  facet normal 0.550761 0.834663 0
    outer loop
      vertex 64.125 8.4 1.6
      vertex 71.2144 3.72199 -1.6
      vertex 64.125 8.4 -1.6
    endloop
  endfacet
  facet normal 1 -0 0
    outer loop
      vertex 64.125 8.4 1.6
      vertex 64.125 42.3826 -1.6
      vertex 64.125 42.3826 1.6
    endloop
  endfacet
  facet normal 1 0 0
    outer loop
      vertex 64.125 42.3826 -1.6
      vertex 64.125 8.4 1.6
      vertex 64.125 8.4 -1.6
    endloop
  endfacet
  facet normal 0.980775 0.19514 0
    outer loop
      vertex 64.125 42.3826 1.6
      vertex 64.0635 42.6917 -1.6
      vertex 64.0635 42.6917 1.6
    endloop
  endfacet
  facet normal 0.980775 0.19514 0
    outer loop
      vertex 64.0635 42.6917 -1.6
      vertex 64.125 42.3826 1.6
      vertex 64.125 42.3826 -1.6
    endloop
  endfacet
  facet normal 0.923901 0.382632 0
    outer loop
      vertex 64.0635 42.6917 1.6
      vertex 63.9429 42.9829 -1.6
      vertex 63.9429 42.9829 1.6
    endloop
  endfacet
  facet normal 0.923901 0.382632 0
    outer loop
      vertex 63.9429 42.9829 -1.6
      vertex 64.0635 42.6917 1.6
      vertex 64.0635 42.6917 -1.6
    endloop
  endfacet
  facet normal 0.831415 0.555652 0
    outer loop
      vertex 63.9429 42.9829 1.6
      vertex 63.7678 43.2449 -1.6
      vertex 63.7678 43.2449 1.6
    endloop
  endfacet
  facet normal 0.831415 0.555652 0
    outer loop
      vertex 63.7678 43.2449 -1.6
      vertex 63.9429 42.9829 1.6
      vertex 63.9429 42.9829 -1.6
    endloop
  endfacet
  facet normal 0.707107 0.707107 0
    outer loop
      vertex 63.7678 43.2449 1.6
      vertex 63.5449 43.4678 -1.6
      vertex 63.5449 43.4678 1.6
    endloop
  endfacet
  facet normal 0.707107 0.707107 0
    outer loop
      vertex 63.5449 43.4678 -1.6
      vertex 63.7678 43.2449 1.6
      vertex 63.7678 43.2449 -1.6
    endloop
  endfacet
  facet normal 0.555652 0.831415 -0
    outer loop
      vertex 63.5449 43.4678 -1.6
      vertex 63.2829 43.6429 1.6
      vertex 63.5449 43.4678 1.6
    endloop
  endfacet
  facet normal 0.555652 0.831415 0
    outer loop
      vertex 63.2829 43.6429 1.6
      vertex 63.5449 43.4678 -1.6
      vertex 63.2829 43.6429 -1.6
    endloop
  endfacet
  facet normal 0.382632 0.923901 -0
    outer loop
      vertex 63.2829 43.6429 -1.6
      vertex 62.9917 43.7635 1.6
      vertex 63.2829 43.6429 1.6
    endloop
  endfacet
  facet normal 0.382632 0.923901 0
    outer loop
      vertex 62.9917 43.7635 1.6
      vertex 63.2829 43.6429 -1.6
      vertex 62.9917 43.7635 -1.6
    endloop
  endfacet
  facet normal 0.19514 0.980775 -0
    outer loop
      vertex 62.9917 43.7635 -1.6
      vertex 62.6826 43.825 1.6
      vertex 62.9917 43.7635 1.6
    endloop
  endfacet
  facet normal 0.19514 0.980775 0
    outer loop
      vertex 62.6826 43.825 1.6
      vertex 62.9917 43.7635 -1.6
      vertex 62.6826 43.825 -1.6
    endloop
  endfacet
  facet normal 0 1 -0
    outer loop
      vertex 62.6826 43.825 -1.6
      vertex -62.6826 43.825 1.6
      vertex 62.6826 43.825 1.6
    endloop
  endfacet
  facet normal 0 1 0
    outer loop
      vertex -62.6826 43.825 1.6
      vertex 62.6826 43.825 -1.6
      vertex -62.6826 43.825 -1.6
    endloop
  endfacet
  facet normal -0.19514 0.980775 0
    outer loop
      vertex -62.6826 43.825 -1.6
      vertex -62.9917 43.7635 1.6
      vertex -62.6826 43.825 1.6
    endloop
  endfacet
  facet normal -0.19514 0.980775 0
    outer loop
      vertex -62.9917 43.7635 1.6
      vertex -62.6826 43.825 -1.6
      vertex -62.9917 43.7635 -1.6
    endloop
  endfacet
  facet normal -0.382632 0.923901 0
    outer loop
      vertex -62.9917 43.7635 -1.6
      vertex -63.2829 43.6429 1.6
      vertex -62.9917 43.7635 1.6
    endloop
  endfacet
  facet normal -0.382632 0.923901 0
    outer loop
      vertex -63.2829 43.6429 1.6
      vertex -62.9917 43.7635 -1.6
      vertex -63.2829 43.6429 -1.6
    endloop
  endfacet
  facet normal -0.555652 0.831415 0
    outer loop
      vertex -63.2829 43.6429 -1.6
      vertex -63.5449 43.4678 1.6
      vertex -63.2829 43.6429 1.6
    endloop
  endfacet
  facet normal -0.555652 0.831415 0
    outer loop
      vertex -63.5449 43.4678 1.6
      vertex -63.2829 43.6429 -1.6
      vertex -63.5449 43.4678 -1.6
    endloop
  endfacet
  facet normal -0.707107 0.707107 0
    outer loop
      vertex -63.7678 43.2449 -1.6
      vertex -63.5449 43.4678 1.6
      vertex -63.5449 43.4678 -1.6
    endloop
  endfacet
  facet normal -0.707107 0.707107 0
    outer loop
      vertex -63.5449 43.4678 1.6
      vertex -63.7678 43.2449 -1.6
      vertex -63.7678 43.2449 1.6
    endloop
  endfacet
  facet normal -0.831415 0.555652 0
    outer loop
      vertex -63.9429 42.9829 -1.6
      vertex -63.7678 43.2449 1.6
      vertex -63.7678 43.2449 -1.6
    endloop
  endfacet
  facet normal -0.831415 0.555652 0
    outer loop
      vertex -63.7678 43.2449 1.6
      vertex -63.9429 42.9829 -1.6
      vertex -63.9429 42.9829 1.6
    endloop
  endfacet
  facet normal -0.923901 0.382632 0
    outer loop
      vertex -64.0635 42.6917 -1.6
      vertex -63.9429 42.9829 1.6
      vertex -63.9429 42.9829 -1.6
    endloop
  endfacet
  facet normal -0.923901 0.382632 0
    outer loop
      vertex -63.9429 42.9829 1.6
      vertex -64.0635 42.6917 -1.6
      vertex -64.0635 42.6917 1.6
    endloop
  endfacet
  facet normal -0.980775 0.19514 0
    outer loop
      vertex -64.125 42.3826 -1.6
      vertex -64.0635 42.6917 1.6
      vertex -64.0635 42.6917 -1.6
    endloop
  endfacet
  facet normal -0.980775 0.19514 0
    outer loop
      vertex -64.0635 42.6917 1.6
      vertex -64.125 42.3826 -1.6
      vertex -64.125 42.3826 1.6
    endloop
  endfacet
  facet normal -1 0 0
    outer loop
      vertex -64.125 -42.3826 -1.6
      vertex -64.125 42.3826 1.6
      vertex -64.125 42.3826 -1.6
    endloop
  endfacet
  facet normal -1 -0 0
    outer loop
      vertex -64.125 42.3826 1.6
      vertex -64.125 -42.3826 -1.6
      vertex -64.125 -42.3826 1.6
    endloop
  endfacet
  facet normal -0.980775 -0.19514 0
    outer loop
      vertex -64.0635 -42.6917 -1.6
      vertex -64.125 -42.3826 1.6
      vertex -64.125 -42.3826 -1.6
    endloop
  endfacet
  facet normal -0.980775 -0.19514 0
    outer loop
      vertex -64.125 -42.3826 1.6
      vertex -64.0635 -42.6917 -1.6
      vertex -64.0635 -42.6917 1.6
    endloop
  endfacet
  facet normal -0.923901 -0.382632 0
    outer loop
      vertex -63.9429 -42.9829 -1.6
      vertex -64.0635 -42.6917 1.6
      vertex -64.0635 -42.6917 -1.6
    endloop
  endfacet
  facet normal -0.923901 -0.382632 0
    outer loop
      vertex -64.0635 -42.6917 1.6
      vertex -63.9429 -42.9829 -1.6
      vertex -63.9429 -42.9829 1.6
    endloop
  endfacet
  facet normal -0.831415 -0.555652 0
    outer loop
      vertex -63.7678 -43.2449 -1.6
      vertex -63.9429 -42.9829 1.6
      vertex -63.9429 -42.9829 -1.6
    endloop
  endfacet
  facet normal -0.831415 -0.555652 0
    outer loop
      vertex -63.9429 -42.9829 1.6
      vertex -63.7678 -43.2449 -1.6
      vertex -63.7678 -43.2449 1.6
    endloop
  endfacet
  facet normal -0.707107 -0.707107 0
    outer loop
      vertex -63.5449 -43.4678 -1.6
      vertex -63.7678 -43.2449 1.6
      vertex -63.7678 -43.2449 -1.6
    endloop
  endfacet
  facet normal -0.707107 -0.707107 0
    outer loop
      vertex -63.7678 -43.2449 1.6
      vertex -63.5449 -43.4678 -1.6
      vertex -63.5449 -43.4678 1.6
    endloop
  endfacet
  facet normal -0.555652 -0.831415 0
    outer loop
      vertex -63.5449 -43.4678 -1.6
      vertex -63.2829 -43.6429 1.6
      vertex -63.5449 -43.4678 1.6
    endloop
  endfacet
  facet normal -0.555652 -0.831415 -0
    outer loop
      vertex -63.2829 -43.6429 1.6
      vertex -63.5449 -43.4678 -1.6
      vertex -63.2829 -43.6429 -1.6
    endloop
  endfacet
  facet normal -0.382632 -0.923901 0
    outer loop
      vertex -63.2829 -43.6429 -1.6
      vertex -62.9917 -43.7635 1.6
      vertex -63.2829 -43.6429 1.6
    endloop
  endfacet
  facet normal -0.382632 -0.923901 -0
    outer loop
      vertex -62.9917 -43.7635 1.6
      vertex -63.2829 -43.6429 -1.6
      vertex -62.9917 -43.7635 -1.6
    endloop
  endfacet
  facet normal -0.19514 -0.980775 0
    outer loop
      vertex -62.9917 -43.7635 -1.6
      vertex -62.6826 -43.825 1.6
      vertex -62.9917 -43.7635 1.6
    endloop
  endfacet
  facet normal -0.19514 -0.980775 -0
    outer loop
      vertex -62.6826 -43.825 1.6
      vertex -62.9917 -43.7635 -1.6
      vertex -62.6826 -43.825 -1.6
    endloop
  endfacet
  facet normal 0 -1 0
    outer loop
      vertex -62.6826 -43.825 -1.6
      vertex 62.6826 -43.825 1.6
      vertex -62.6826 -43.825 1.6
    endloop
  endfacet
  facet normal 0 -1 -0
    outer loop
      vertex 62.6826 -43.825 1.6
      vertex -62.6826 -43.825 -1.6
      vertex 62.6826 -43.825 -1.6
    endloop
  endfacet
  facet normal 0.19514 -0.980775 0
    outer loop
      vertex 62.6826 -43.825 -1.6
      vertex 62.9917 -43.7635 1.6
      vertex 62.6826 -43.825 1.6
    endloop
  endfacet
  facet normal 0.19514 -0.980775 0
    outer loop
      vertex 62.9917 -43.7635 1.6
      vertex 62.6826 -43.825 -1.6
      vertex 62.9917 -43.7635 -1.6
    endloop
  endfacet
  facet normal 0.195112 0.980781 -0
    outer loop
      vertex 69.0477 -1.8 -1.6
      vertex 68.7 -1.73083 1.6
      vertex 69.0477 -1.8 1.6
    endloop
  endfacet
  facet normal 0.195112 0.980781 0
    outer loop
      vertex 68.7 -1.73083 1.6
      vertex 69.0477 -1.8 -1.6
      vertex 68.7 -1.73083 -1.6
    endloop
  endfacet
  facet normal 0.382668 0.923886 -0
    outer loop
      vertex 68.7 -1.73083 -1.6
      vertex 68.3724 -1.59514 1.6
      vertex 68.7 -1.73083 1.6
    endloop
  endfacet
  facet normal 0.382668 0.923886 0
    outer loop
      vertex 68.3724 -1.59514 1.6
      vertex 68.7 -1.73083 -1.6
      vertex 68.3724 -1.59514 -1.6
    endloop
  endfacet
  facet normal 0.555592 0.831455 -0
    outer loop
      vertex 68.3724 -1.59514 -1.6
      vertex 68.0776 -1.39815 1.6
      vertex 68.3724 -1.59514 1.6
    endloop
  endfacet
  facet normal 0.555592 0.831455 0
    outer loop
      vertex 68.0776 -1.39815 1.6
      vertex 68.3724 -1.59514 -1.6
      vertex 68.0776 -1.39815 -1.6
    endloop
  endfacet
  facet normal 0.707135 0.707079 0
    outer loop
      vertex 68.0776 -1.39815 1.6
      vertex 67.8269 -1.14743 -1.6
      vertex 67.8269 -1.14743 1.6
    endloop
  endfacet
  facet normal 0.707135 0.707079 0
    outer loop
      vertex 67.8269 -1.14743 -1.6
      vertex 68.0776 -1.39815 1.6
      vertex 68.0776 -1.39815 -1.6
    endloop
  endfacet
  facet normal 0.831452 0.555597 0
    outer loop
      vertex 67.8269 -1.14743 1.6
      vertex 67.6299 -0.852619 -1.6
      vertex 67.6299 -0.852619 1.6
    endloop
  endfacet
  facet normal 0.831452 0.555597 0
    outer loop
      vertex 67.6299 -0.852619 -1.6
      vertex 67.8269 -1.14743 1.6
      vertex 67.8269 -1.14743 -1.6
    endloop
  endfacet
  facet normal 0.923867 0.382714 0
    outer loop
      vertex 67.6299 -0.852619 1.6
      vertex 67.4942 -0.525041 -1.6
      vertex 67.4942 -0.525041 1.6
    endloop
  endfacet
  facet normal 0.923867 0.382714 0
    outer loop
      vertex 67.4942 -0.525041 -1.6
      vertex 67.6299 -0.852619 1.6
      vertex 67.6299 -0.852619 -1.6
    endloop
  endfacet
  facet normal 0.980771 0.195163 0
    outer loop
      vertex 67.4942 -0.525041 1.6
      vertex 67.425 -0.177284 -1.6
      vertex 67.425 -0.177284 1.6
    endloop
  endfacet
  facet normal 0.980771 0.195163 0
    outer loop
      vertex 67.425 -0.177284 -1.6
      vertex 67.4942 -0.525041 1.6
      vertex 67.4942 -0.525041 -1.6
    endloop
  endfacet
  facet normal 1 -0 0
    outer loop
      vertex 67.425 -0.177284 1.6
      vertex 67.425 0.177284 -1.6
      vertex 67.425 0.177284 1.6
    endloop
  endfacet
  facet normal 1 0 0
    outer loop
      vertex 67.425 0.177284 -1.6
      vertex 67.425 -0.177284 1.6
      vertex 67.425 -0.177284 -1.6
    endloop
  endfacet
  facet normal 0.980771 -0.195163 0
    outer loop
      vertex 67.425 0.177284 1.6
      vertex 67.4942 0.525041 -1.6
      vertex 67.4942 0.525041 1.6
    endloop
  endfacet
  facet normal 0.980771 -0.195163 0
    outer loop
      vertex 67.4942 0.525041 -1.6
      vertex 67.425 0.177284 1.6
      vertex 67.425 0.177284 -1.6
    endloop
  endfacet
  facet normal 0.923867 -0.382714 0
    outer loop
      vertex 67.4942 0.525041 1.6
      vertex 67.6299 0.852619 -1.6
      vertex 67.6299 0.852619 1.6
    endloop
  endfacet
  facet normal 0.923867 -0.382714 0
    outer loop
      vertex 67.6299 0.852619 -1.6
      vertex 67.4942 0.525041 1.6
      vertex 67.4942 0.525041 -1.6
    endloop
  endfacet
  facet normal 0.831452 -0.555597 0
    outer loop
      vertex 67.6299 0.852619 1.6
      vertex 67.8269 1.14743 -1.6
      vertex 67.8269 1.14743 1.6
    endloop
  endfacet
  facet normal 0.831452 -0.555597 0
    outer loop
      vertex 67.8269 1.14743 -1.6
      vertex 67.6299 0.852619 1.6
      vertex 67.6299 0.852619 -1.6
    endloop
  endfacet
  facet normal 0.707135 -0.707079 0
    outer loop
      vertex 67.8269 1.14743 1.6
      vertex 68.0776 1.39815 -1.6
      vertex 68.0776 1.39815 1.6
    endloop
  endfacet
  facet normal 0.707135 -0.707079 0
    outer loop
      vertex 68.0776 1.39815 -1.6
      vertex 67.8269 1.14743 1.6
      vertex 67.8269 1.14743 -1.6
    endloop
  endfacet
  facet normal 0.555592 -0.831455 0
    outer loop
      vertex 68.0776 1.39815 -1.6
      vertex 68.3724 1.59514 1.6
      vertex 68.0776 1.39815 1.6
    endloop
  endfacet
  facet normal 0.555592 -0.831455 0
    outer loop
      vertex 68.3724 1.59514 1.6
      vertex 68.0776 1.39815 -1.6
      vertex 68.3724 1.59514 -1.6
    endloop
  endfacet
  facet normal 0.382668 -0.923886 0
    outer loop
      vertex 68.3724 1.59514 -1.6
      vertex 68.7 1.73083 1.6
      vertex 68.3724 1.59514 1.6
    endloop
  endfacet
  facet normal 0.382668 -0.923886 0
    outer loop
      vertex 68.7 1.73083 1.6
      vertex 68.3724 1.59514 -1.6
      vertex 68.7 1.73083 -1.6
    endloop
  endfacet
  facet normal 0.195112 -0.980781 0
    outer loop
      vertex 68.7 1.73083 -1.6
      vertex 69.0477 1.8 1.6
      vertex 68.7 1.73083 1.6
    endloop
  endfacet
  facet normal 0.195112 -0.980781 0
    outer loop
      vertex 69.0477 1.8 1.6
      vertex 68.7 1.73083 -1.6
      vertex 69.0477 1.8 -1.6
    endloop
  endfacet
  facet normal 0 -1 0
    outer loop
      vertex 69.0477 1.8 -1.6
      vertex 69.4023 1.8 1.6
      vertex 69.0477 1.8 1.6
    endloop
  endfacet
  facet normal 0 -1 -0
    outer loop
      vertex 69.4023 1.8 1.6
      vertex 69.0477 1.8 -1.6
      vertex 69.4023 1.8 -1.6
    endloop
  endfacet
  facet normal -0.195112 -0.980781 0
    outer loop
      vertex 69.4023 1.8 -1.6
      vertex 69.75 1.73083 1.6
      vertex 69.4023 1.8 1.6
    endloop
  endfacet
  facet normal -0.195112 -0.980781 -0
    outer loop
      vertex 69.75 1.73083 1.6
      vertex 69.4023 1.8 -1.6
      vertex 69.75 1.73083 -1.6
    endloop
  endfacet
  facet normal -0.382668 -0.923886 0
    outer loop
      vertex 69.75 1.73083 -1.6
      vertex 70.0776 1.59514 1.6
      vertex 69.75 1.73083 1.6
    endloop
  endfacet
  facet normal -0.382668 -0.923886 -0
    outer loop
      vertex 70.0776 1.59514 1.6
      vertex 69.75 1.73083 -1.6
      vertex 70.0776 1.59514 -1.6
    endloop
  endfacet
  facet normal -0.555592 -0.831455 0
    outer loop
      vertex 70.0776 1.59514 -1.6
      vertex 70.3724 1.39815 1.6
      vertex 70.0776 1.59514 1.6
    endloop
  endfacet
  facet normal -0.555592 -0.831455 -0
    outer loop
      vertex 70.3724 1.39815 1.6
      vertex 70.0776 1.59514 -1.6
      vertex 70.3724 1.39815 -1.6
    endloop
  endfacet
  facet normal -0.706994 -0.70722 0
    outer loop
      vertex 70.6232 1.14743 -1.6
      vertex 70.3724 1.39815 1.6
      vertex 70.3724 1.39815 -1.6
    endloop
  endfacet
  facet normal -0.706994 -0.70722 0
    outer loop
      vertex 70.3724 1.39815 1.6
      vertex 70.6232 1.14743 -1.6
      vertex 70.6232 1.14743 1.6
    endloop
  endfacet
  facet normal -0.831582 -0.555402 0
    outer loop
      vertex 70.8201 0.852619 -1.6
      vertex 70.6232 1.14743 1.6
      vertex 70.6232 1.14743 -1.6
    endloop
  endfacet
  facet normal -0.831582 -0.555402 0
    outer loop
      vertex 70.6232 1.14743 1.6
      vertex 70.8201 0.852619 -1.6
      vertex 70.8201 0.852619 1.6
    endloop
  endfacet
  facet normal -0.923867 -0.382714 0
    outer loop
      vertex 70.9558 0.525041 -1.6
      vertex 70.8201 0.852619 1.6
      vertex 70.8201 0.852619 -1.6
    endloop
  endfacet
  facet normal -0.923867 -0.382714 0
    outer loop
      vertex 70.8201 0.852619 1.6
      vertex 70.9558 0.525041 -1.6
      vertex 70.9558 0.525041 1.6
    endloop
  endfacet
  facet normal -0.980771 -0.195163 0
    outer loop
      vertex 71.025 0.177284 -1.6
      vertex 70.9558 0.525041 1.6
      vertex 70.9558 0.525041 -1.6
    endloop
  endfacet
  facet normal -0.980771 -0.195163 0
    outer loop
      vertex 70.9558 0.525041 1.6
      vertex 71.025 0.177284 -1.6
      vertex 71.025 0.177284 1.6
    endloop
  endfacet
  facet normal -1 0 0
    outer loop
      vertex 71.025 -0.177284 -1.6
      vertex 71.025 0.177284 1.6
      vertex 71.025 0.177284 -1.6
    endloop
  endfacet
  facet normal -1 -0 0
    outer loop
      vertex 71.025 0.177284 1.6
      vertex 71.025 -0.177284 -1.6
      vertex 71.025 -0.177284 1.6
    endloop
  endfacet
  facet normal -0.980771 0.195163 0
    outer loop
      vertex 70.9558 -0.525041 -1.6
      vertex 71.025 -0.177284 1.6
      vertex 71.025 -0.177284 -1.6
    endloop
  endfacet
  facet normal -0.980771 0.195163 0
    outer loop
      vertex 71.025 -0.177284 1.6
      vertex 70.9558 -0.525041 -1.6
      vertex 70.9558 -0.525041 1.6
    endloop
  endfacet
  facet normal -0.923867 0.382714 0
    outer loop
      vertex 70.8201 -0.852619 -1.6
      vertex 70.9558 -0.525041 1.6
      vertex 70.9558 -0.525041 -1.6
    endloop
  endfacet
  facet normal -0.923867 0.382714 0
    outer loop
      vertex 70.9558 -0.525041 1.6
      vertex 70.8201 -0.852619 -1.6
      vertex 70.8201 -0.852619 1.6
    endloop
  endfacet
  facet normal -0.831582 0.555402 0
    outer loop
      vertex 70.6232 -1.14743 -1.6
      vertex 70.8201 -0.852619 1.6
      vertex 70.8201 -0.852619 -1.6
    endloop
  endfacet
  facet normal -0.831582 0.555402 0
    outer loop
      vertex 70.8201 -0.852619 1.6
      vertex 70.6232 -1.14743 -1.6
      vertex 70.6232 -1.14743 1.6
    endloop
  endfacet
  facet normal -0.706994 0.70722 0
    outer loop
      vertex 70.3724 -1.39815 -1.6
      vertex 70.6232 -1.14743 1.6
      vertex 70.6232 -1.14743 -1.6
    endloop
  endfacet
  facet normal -0.706994 0.70722 0
    outer loop
      vertex 70.6232 -1.14743 1.6
      vertex 70.3724 -1.39815 -1.6
      vertex 70.3724 -1.39815 1.6
    endloop
  endfacet
  facet normal -0.555592 0.831455 0
    outer loop
      vertex 70.3724 -1.39815 -1.6
      vertex 70.0776 -1.59514 1.6
      vertex 70.3724 -1.39815 1.6
    endloop
  endfacet
  facet normal -0.555592 0.831455 0
    outer loop
      vertex 70.0776 -1.59514 1.6
      vertex 70.3724 -1.39815 -1.6
      vertex 70.0776 -1.59514 -1.6
    endloop
  endfacet
  facet normal -0.382668 0.923886 0
    outer loop
      vertex 70.0776 -1.59514 -1.6
      vertex 69.75 -1.73083 1.6
      vertex 70.0776 -1.59514 1.6
    endloop
  endfacet
  facet normal -0.382668 0.923886 0
    outer loop
      vertex 69.75 -1.73083 1.6
      vertex 70.0776 -1.59514 -1.6
      vertex 69.75 -1.73083 -1.6
    endloop
  endfacet
  facet normal -0.195112 0.980781 0
    outer loop
      vertex 69.75 -1.73083 -1.6
      vertex 69.4023 -1.8 1.6
      vertex 69.75 -1.73083 1.6
    endloop
  endfacet
  facet normal -0.195112 0.980781 0
    outer loop
      vertex 69.4023 -1.8 1.6
      vertex 69.75 -1.73083 -1.6
      vertex 69.4023 -1.8 -1.6
    endloop
  endfacet
  facet normal 0 1 -0
    outer loop
      vertex 69.4023 -1.8 -1.6
      vertex 69.0477 -1.8 1.6
      vertex 69.4023 -1.8 1.6
    endloop
  endfacet
  facet normal 0 1 0
    outer loop
      vertex 69.0477 -1.8 1.6
      vertex 69.4023 -1.8 -1.6
      vertex 69.0477 -1.8 -1.6
    endloop
  endfacet
  facet normal 0 0 1
    outer loop
      vertex 62.6826 43.825 1.6
      vertex 64.125 8.4 1.6
      vertex 64.125 42.3826 1.6
    endloop
  endfacet
  facet normal -0 0 1
    outer loop
      vertex -62.6826 43.825 1.6
      vertex 64.125 8.4 1.6
      vertex 62.6826 43.825 1.6
    endloop
  endfacet
  facet normal 0 0 1
    outer loop
      vertex 62.6826 43.825 1.6
      vertex 64.125 42.3826 1.6
      vertex 64.0635 42.6917 1.6
    endloop
  endfacet
  facet normal 0 0 1
    outer loop
      vertex 64.125 8.4 1.6
      vertex -62.6826 43.825 1.6
      vertex 64.125 -8.4 1.6
    endloop
  endfacet
  facet normal 0 0 1
    outer loop
      vertex 62.6826 43.825 1.6
      vertex 64.0635 42.6917 1.6
      vertex 63.9429 42.9829 1.6
    endloop
  endfacet
  facet normal 0 0 1
    outer loop
      vertex 64.125 -8.4 1.6
      vertex 62.6826 -43.825 1.6
      vertex 64.125 -42.3826 1.6
    endloop
  endfacet
  facet normal 0 0 1
    outer loop
      vertex 62.6826 43.825 1.6
      vertex 63.9429 42.9829 1.6
      vertex 63.7678 43.2449 1.6
    endloop
  endfacet
  facet normal 0 0 1
    outer loop
      vertex 64.125 -42.3826 1.6
      vertex 62.6826 -43.825 1.6
      vertex 64.0635 -42.6917 1.6
    endloop
  endfacet
  facet normal 0 0 1
    outer loop
      vertex 62.6826 43.825 1.6
      vertex 63.7678 43.2449 1.6
      vertex 63.5449 43.4678 1.6
    endloop
  endfacet
  facet normal 0 0 1
    outer loop
      vertex 64.0635 -42.6917 1.6
      vertex 62.6826 -43.825 1.6
      vertex 63.9429 -42.9829 1.6
    endloop
  endfacet
  facet normal 0 0 1
    outer loop
      vertex 62.6826 43.825 1.6
      vertex 63.5449 43.4678 1.6
      vertex 63.2829 43.6429 1.6
    endloop
  endfacet
  facet normal 0 0 1
    outer loop
      vertex 63.9429 -42.9829 1.6
      vertex 62.6826 -43.825 1.6
      vertex 63.7678 -43.2449 1.6
    endloop
  endfacet
  facet normal 0 0 1
    outer loop
      vertex 62.6826 43.825 1.6
      vertex 63.2829 43.6429 1.6
      vertex 62.9917 43.7635 1.6
    endloop
  endfacet
  facet normal 0 0 1
    outer loop
      vertex 63.7678 -43.2449 1.6
      vertex 62.6826 -43.825 1.6
      vertex 63.5449 -43.4678 1.6
    endloop
  endfacet
  facet normal 0 0 1
    outer loop
      vertex 63.5449 -43.4678 1.6
      vertex 62.6826 -43.825 1.6
      vertex 63.2829 -43.6429 1.6
    endloop
  endfacet
  facet normal 0 0 1
    outer loop
      vertex 63.2829 -43.6429 1.6
      vertex 62.6826 -43.825 1.6
      vertex 62.9917 -43.7635 1.6
    endloop
  endfacet
  facet normal 0 0 1
    outer loop
      vertex -62.6826 -43.825 1.6
      vertex 64.125 -8.4 1.6
      vertex -62.6826 43.825 1.6
    endloop
  endfacet
  facet normal 0 0 1
    outer loop
      vertex 64.125 -8.4 1.6
      vertex -62.6826 -43.825 1.6
      vertex 62.6826 -43.825 1.6
    endloop
  endfacet
  facet normal 0 0 1
    outer loop
      vertex -64.125 42.3826 1.6
      vertex -62.6826 43.825 1.6
      vertex -62.9917 43.7635 1.6
    endloop
  endfacet
  facet normal 0 0 1
    outer loop
      vertex -62.6826 43.825 1.6
      vertex -64.125 42.3826 1.6
      vertex -62.6826 -43.825 1.6
    endloop
  endfacet
  facet normal 0 0 1
    outer loop
      vertex -64.125 42.3826 1.6
      vertex -62.9917 43.7635 1.6
      vertex -63.2829 43.6429 1.6
    endloop
  endfacet
  facet normal -0 0 1
    outer loop
      vertex -64.125 -42.3826 1.6
      vertex -62.6826 -43.825 1.6
      vertex -64.125 42.3826 1.6
    endloop
  endfacet
  facet normal 0 0 1
    outer loop
      vertex -64.125 42.3826 1.6
      vertex -63.2829 43.6429 1.6
      vertex -63.5449 43.4678 1.6
    endloop
  endfacet
  facet normal 0 0 1
    outer loop
      vertex -62.6826 -43.825 1.6
      vertex -64.125 -42.3826 1.6
      vertex -62.9917 -43.7635 1.6
    endloop
  endfacet
  facet normal 0 0 1
    outer loop
      vertex -64.125 42.3826 1.6
      vertex -63.5449 43.4678 1.6
      vertex -63.7678 43.2449 1.6
    endloop
  endfacet
  facet normal 0 0 1
    outer loop
      vertex -62.9917 -43.7635 1.6
      vertex -64.125 -42.3826 1.6
      vertex -63.2829 -43.6429 1.6
    endloop
  endfacet
  facet normal 0 0 1
    outer loop
      vertex -64.125 42.3826 1.6
      vertex -63.7678 43.2449 1.6
      vertex -63.9429 42.9829 1.6
    endloop
  endfacet
  facet normal 0 0 1
    outer loop
      vertex -63.2829 -43.6429 1.6
      vertex -64.125 -42.3826 1.6
      vertex -63.5449 -43.4678 1.6
    endloop
  endfacet
  facet normal 0 0 1
    outer loop
      vertex -64.125 42.3826 1.6
      vertex -63.9429 42.9829 1.6
      vertex -64.0635 42.6917 1.6
    endloop
  endfacet
  facet normal 0 0 1
    outer loop
      vertex -63.5449 -43.4678 1.6
      vertex -64.125 -42.3826 1.6
      vertex -63.7678 -43.2449 1.6
    endloop
  endfacet
  facet normal 0 0 1
    outer loop
      vertex -63.7678 -43.2449 1.6
      vertex -64.125 -42.3826 1.6
      vertex -63.9429 -42.9829 1.6
    endloop
  endfacet
  facet normal 0 0 1
    outer loop
      vertex -63.9429 -42.9829 1.6
      vertex -64.125 -42.3826 1.6
      vertex -64.0635 -42.6917 1.6
    endloop
  endfacet
  facet normal 0 0 1
    outer loop
      vertex 71.025 0.177284 1.6
      vertex 73.425 0.413664 1.6
      vertex 73.2636 1.22509 1.6
    endloop
  endfacet
  facet normal 0 0 1
    outer loop
      vertex 73.425 0.413664 1.6
      vertex 71.025 0.177284 1.6
      vertex 73.425 -0.413664 1.6
    endloop
  endfacet
  facet normal 0 0 1
    outer loop
      vertex 70.9558 0.525041 1.6
      vertex 73.2636 1.22509 1.6
      vertex 72.947 1.98945 1.6
    endloop
  endfacet
  facet normal -0 0 1
    outer loop
      vertex 71.025 -0.177284 1.6
      vertex 73.425 -0.413664 1.6
      vertex 71.025 0.177284 1.6
    endloop
  endfacet
  facet normal 0 0 1
    outer loop
      vertex 70.8201 0.852619 1.6
      vertex 72.947 1.98945 1.6
      vertex 72.4874 2.67734 1.6
    endloop
  endfacet
  facet normal 0 0 1
    outer loop
      vertex 73.425 -0.413664 1.6
      vertex 71.025 -0.177284 1.6
      vertex 73.2636 -1.22509 1.6
    endloop
  endfacet
  facet normal 0 0 1
    outer loop
      vertex 70.6232 1.14743 1.6
      vertex 72.4874 2.67734 1.6
      vertex 71.9023 3.26235 1.6
    endloop
  endfacet
  facet normal -0 0 1
    outer loop
      vertex 70.9558 -0.525041 1.6
      vertex 73.2636 -1.22509 1.6
      vertex 71.025 -0.177284 1.6
    endloop
  endfacet
  facet normal 0 0 1
    outer loop
      vertex 70.3724 1.39815 1.6
      vertex 71.9023 3.26235 1.6
      vertex 71.2144 3.72199 1.6
    endloop
  endfacet
  facet normal 0 0 1
    outer loop
      vertex 73.2636 -1.22509 1.6
      vertex 70.9558 -0.525041 1.6
      vertex 72.947 -1.98945 1.6
    endloop
  endfacet
  facet normal -0 0 1
    outer loop
      vertex 70.8201 -0.852619 1.6
      vertex 72.947 -1.98945 1.6
      vertex 70.9558 -0.525041 1.6
    endloop
  endfacet
  facet normal 0 0 1
    outer loop
      vertex 73.2636 1.22509 1.6
      vertex 70.9558 0.525041 1.6
      vertex 71.025 0.177284 1.6
    endloop
  endfacet
  facet normal 0 0 1
    outer loop
      vertex 72.947 1.98945 1.6
      vertex 70.8201 0.852619 1.6
      vertex 70.9558 0.525041 1.6
    endloop
  endfacet
  facet normal 0 0 1
    outer loop
      vertex 72.4874 2.67734 1.6
      vertex 70.6232 1.14743 1.6
      vertex 70.8201 0.852619 1.6
    endloop
  endfacet
  facet normal 0 0 1
    outer loop
      vertex 71.9023 3.26235 1.6
      vertex 70.3724 1.39815 1.6
      vertex 70.6232 1.14743 1.6
    endloop
  endfacet
  facet normal 0 0 1
    outer loop
      vertex 71.2144 3.72199 1.6
      vertex 70.0776 1.59514 1.6
      vertex 70.3724 1.39815 1.6
    endloop
  endfacet
  facet normal 0 0 1
    outer loop
      vertex 71.2144 3.72199 1.6
      vertex 69.75 1.73083 1.6
      vertex 70.0776 1.59514 1.6
    endloop
  endfacet
  facet normal 0 0 1
    outer loop
      vertex 71.2144 3.72199 1.6
      vertex 69.4023 1.8 1.6
      vertex 69.75 1.73083 1.6
    endloop
  endfacet
  facet normal 0 0 1
    outer loop
      vertex 71.2144 3.72199 1.6
      vertex 69.0477 1.8 1.6
      vertex 69.4023 1.8 1.6
    endloop
  endfacet
  facet normal 0 0 1
    outer loop
      vertex 71.2144 3.72199 1.6
      vertex 68.7 1.73083 1.6
      vertex 69.0477 1.8 1.6
    endloop
  endfacet
  facet normal 0 0 1
    outer loop
      vertex 64.125 8.4 1.6
      vertex 68.7 1.73083 1.6
      vertex 71.2144 3.72199 1.6
    endloop
  endfacet
  facet normal 0 0 1
    outer loop
      vertex 68.7 1.73083 1.6
      vertex 64.125 8.4 1.6
      vertex 68.3724 1.59514 1.6
    endloop
  endfacet
  facet normal 0 0 1
    outer loop
      vertex 67.425 0.177284 1.6
      vertex 64.125 8.4 1.6
      vertex 67.425 -0.177284 1.6
    endloop
  endfacet
  facet normal 0 0 1
    outer loop
      vertex 67.4942 0.525041 1.6
      vertex 64.125 8.4 1.6
      vertex 67.425 0.177284 1.6
    endloop
  endfacet
  facet normal 0 0 1
    outer loop
      vertex 67.6299 0.852619 1.6
      vertex 64.125 8.4 1.6
      vertex 67.4942 0.525041 1.6
    endloop
  endfacet
  facet normal 0 0 1
    outer loop
      vertex 67.8269 1.14743 1.6
      vertex 64.125 8.4 1.6
      vertex 67.6299 0.852619 1.6
    endloop
  endfacet
  facet normal 0 0 1
    outer loop
      vertex 68.0776 1.39815 1.6
      vertex 64.125 8.4 1.6
      vertex 67.8269 1.14743 1.6
    endloop
  endfacet
  facet normal 0 0 1
    outer loop
      vertex 68.3724 1.59514 1.6
      vertex 64.125 8.4 1.6
      vertex 68.0776 1.39815 1.6
    endloop
  endfacet
  facet normal 0 0 1
    outer loop
      vertex 72.947 -1.98945 1.6
      vertex 70.8201 -0.852619 1.6
      vertex 72.4874 -2.67734 1.6
    endloop
  endfacet
  facet normal -0 0 1
    outer loop
      vertex 70.6232 -1.14743 1.6
      vertex 72.4874 -2.67734 1.6
      vertex 70.8201 -0.852619 1.6
    endloop
  endfacet
  facet normal 0 0 1
    outer loop
      vertex 72.4874 -2.67734 1.6
      vertex 70.6232 -1.14743 1.6
      vertex 71.9023 -3.26235 1.6
    endloop
  endfacet
  facet normal -0 0 1
    outer loop
      vertex 70.3724 -1.39815 1.6
      vertex 71.9023 -3.26235 1.6
      vertex 70.6232 -1.14743 1.6
    endloop
  endfacet
  facet normal 0 0 1
    outer loop
      vertex 71.9023 -3.26235 1.6
      vertex 70.3724 -1.39815 1.6
      vertex 71.2144 -3.72199 1.6
    endloop
  endfacet
  facet normal -0 0 1
    outer loop
      vertex 70.0776 -1.59514 1.6
      vertex 71.2144 -3.72199 1.6
      vertex 70.3724 -1.39815 1.6
    endloop
  endfacet
  facet normal -0 0 1
    outer loop
      vertex 69.75 -1.73083 1.6
      vertex 71.2144 -3.72199 1.6
      vertex 70.0776 -1.59514 1.6
    endloop
  endfacet
  facet normal -0 0 1
    outer loop
      vertex 69.4023 -1.8 1.6
      vertex 71.2144 -3.72199 1.6
      vertex 69.75 -1.73083 1.6
    endloop
  endfacet
  facet normal -0 0 1
    outer loop
      vertex 69.0477 -1.8 1.6
      vertex 71.2144 -3.72199 1.6
      vertex 69.4023 -1.8 1.6
    endloop
  endfacet
  facet normal 0 0 1
    outer loop
      vertex 68.7 -1.73083 1.6
      vertex 71.2144 -3.72199 1.6
      vertex 69.0477 -1.8 1.6
    endloop
  endfacet
  facet normal 0 0 1
    outer loop
      vertex 64.125 -8.4 1.6
      vertex 68.7 -1.73083 1.6
      vertex 68.3724 -1.59514 1.6
    endloop
  endfacet
  facet normal 0 0 1
    outer loop
      vertex 64.125 -8.4 1.6
      vertex 68.3724 -1.59514 1.6
      vertex 68.0776 -1.39815 1.6
    endloop
  endfacet
  facet normal 0 0 1
    outer loop
      vertex 64.125 -8.4 1.6
      vertex 67.425 -0.177284 1.6
      vertex 64.125 8.4 1.6
    endloop
  endfacet
  facet normal 0 0 1
    outer loop
      vertex 68.7 -1.73083 1.6
      vertex 64.125 -8.4 1.6
      vertex 71.2144 -3.72199 1.6
    endloop
  endfacet
  facet normal 0 0 1
    outer loop
      vertex 67.8269 -1.14743 1.6
      vertex 64.125 -8.4 1.6
      vertex 68.0776 -1.39815 1.6
    endloop
  endfacet
  facet normal 0 0 1
    outer loop
      vertex 67.6299 -0.852619 1.6
      vertex 64.125 -8.4 1.6
      vertex 67.8269 -1.14743 1.6
    endloop
  endfacet
  facet normal 0 0 1
    outer loop
      vertex 67.4942 -0.525041 1.6
      vertex 64.125 -8.4 1.6
      vertex 67.6299 -0.852619 1.6
    endloop
  endfacet
  facet normal 0 0 1
    outer loop
      vertex 67.425 -0.177284 1.6
      vertex 64.125 -8.4 1.6
      vertex 67.4942 -0.525041 1.6
    endloop
  endfacet
endsolid OpenSCAD_Model
